<?xml version="1.0" encoding="UTF-8"?>
<svg xmlns="http://www.w3.org/2000/svg" xmlns:xlink="http://www.w3.org/1999/xlink" width="100pt" height="100pt" viewBox="0 0 100 100" version="1.1">
<g id="surface1">
<path style=" stroke:none;fill-rule:nonzero;fill:rgb(20%,56.078431%,48.627451%);fill-opacity:1;" d="M 19.96875 63.34375 C 15.667969 63.300781 11.484375 61.921875 8 59.402344 C 3.140625 56.195312 0.152344 50.820312 0 45 L 0 36.667969 C 0 32.984375 2.984375 30 6.667969 30 L 16.667969 30 C 17.585938 30 18.332031 30.746094 18.332031 31.667969 C 18.332031 32.585938 17.585938 33.332031 16.667969 33.332031 L 6.667969 33.332031 C 4.824219 33.332031 3.332031 34.824219 3.332031 36.667969 L 3.332031 45 C 3.496094 49.738281 5.960938 54.101562 9.9375 56.683594 C 14.171875 59.863281 19.675781 60.808594 24.726562 59.222656 C 25.296875 59.007812 25.9375 59.113281 26.402344 59.507812 C 26.863281 59.898438 27.078125 60.511719 26.957031 61.109375 C 26.839844 61.703125 26.402344 62.1875 25.824219 62.371094 C 23.941406 63.019531 21.960938 63.351562 19.96875 63.34375 Z M 19.96875 63.34375 "/>
<path style=" stroke:none;fill-rule:nonzero;fill:rgb(20%,56.078431%,48.627451%);fill-opacity:1;" d="M 80.035156 63.355469 C 76.898438 63.371094 73.8125 62.539062 71.109375 60.949219 C 70.316406 60.480469 70.050781 59.457031 70.519531 58.664062 C 70.988281 57.871094 72.007812 57.609375 72.800781 58.078125 C 77.730469 60.796875 83.746094 60.640625 88.527344 57.664062 C 93.300781 55.191406 96.402344 50.371094 96.667969 45 L 96.667969 36.667969 C 96.667969 34.824219 95.175781 33.332031 93.332031 33.332031 L 83.332031 33.332031 C 82.414062 33.332031 81.667969 32.585938 81.667969 31.667969 C 81.667969 30.746094 82.414062 30 83.332031 30 L 93.332031 30 C 97.015625 30 100 32.984375 100 36.667969 L 100 45 C 99.734375 51.566406 95.992188 57.496094 90.179688 60.558594 C 87.097656 62.359375 83.601562 63.320312 80.035156 63.355469 Z M 80.035156 63.355469 "/>
<path style=" stroke:none;fill-rule:nonzero;fill:rgb(14.901961%,72.156863%,60%);fill-opacity:1;" d="M 83.332031 31.667969 L 83.332031 50 C 83.472656 67.757812 70.222656 82.777344 52.582031 84.851562 C 50.867188 85.050781 49.132812 85.050781 47.417969 84.851562 C 29.777344 82.777344 16.527344 67.757812 16.667969 50 L 16.667969 31.667969 L 23.332031 31.648438 C 31.769531 31.464844 39.671875 27.476562 44.832031 20.800781 C 46.09375 19.242188 47.984375 18.335938 49.988281 18.332031 C 51.988281 18.332031 53.886719 19.230469 55.148438 20.785156 C 60.3125 27.46875 68.222656 31.464844 76.667969 31.648438 Z M 83.332031 31.667969 "/>
<path style=" stroke:none;fill-rule:nonzero;fill:rgb(50.196078%,79.607843%,71.764706%);fill-opacity:1;" d="M 83.332031 31.667969 L 83.332031 35 L 76.667969 34.984375 C 68.222656 34.796875 60.3125 30.804688 55.148438 24.117188 C 53.886719 22.5625 51.988281 21.664062 49.988281 21.667969 C 47.984375 21.671875 46.09375 22.578125 44.832031 24.132812 C 39.671875 30.8125 31.769531 34.800781 23.332031 34.984375 L 16.667969 35 L 16.667969 31.667969 C 16.671875 29.828125 18.160156 28.339844 20 28.332031 L 22.515625 28.332031 C 29.210938 28.253906 35.507812 25.164062 39.667969 19.917969 C 42.195312 16.804688 45.992188 15 50 15 C 54.007812 15 57.804688 16.804688 60.332031 19.917969 C 64.492188 25.164062 70.789062 28.253906 77.484375 28.332031 L 80 28.332031 C 81.839844 28.339844 83.328125 29.828125 83.332031 31.667969 Z M 83.332031 31.667969 "/>
<path style=" stroke:none;fill-rule:nonzero;fill:rgb(7.843137%,62.352941%,51.764706%);fill-opacity:1;" d="M 50 58.3125 C 42.480469 58.3125 35.007812 57.167969 27.832031 54.925781 C 27.265625 54.75 26.832031 54.28125 26.703125 53.699219 C 26.570312 53.121094 26.761719 52.511719 27.199219 52.109375 C 27.636719 51.703125 28.253906 51.566406 28.824219 51.742188 C 42.609375 56.058594 57.382812 56.058594 71.167969 51.742188 C 71.734375 51.566406 72.355469 51.703125 72.792969 52.109375 C 73.230469 52.511719 73.417969 53.121094 73.289062 53.699219 C 73.15625 54.28125 72.726562 54.75 72.15625 54.925781 C 64.984375 57.167969 57.515625 58.308594 50 58.3125 Z M 50 58.3125 "/>
<path style=" stroke:none;fill-rule:nonzero;fill:rgb(7.843137%,62.352941%,51.764706%);fill-opacity:1;" d="M 50 46.65625 C 42.660156 46.664062 35.332031 46.101562 28.078125 44.980469 C 27.175781 44.828125 26.566406 43.980469 26.707031 43.078125 C 26.847656 42.179688 27.6875 41.558594 28.589844 41.6875 C 42.78125 43.871094 57.21875 43.871094 71.410156 41.6875 C 72 41.585938 72.601562 41.8125 72.980469 42.28125 C 73.359375 42.746094 73.457031 43.378906 73.238281 43.9375 C 73.019531 44.496094 72.515625 44.894531 71.921875 44.980469 C 64.667969 46.101562 57.339844 46.664062 50 46.65625 Z M 50 46.65625 "/>
<path style=" stroke:none;fill-rule:nonzero;fill:rgb(7.843137%,62.352941%,51.764706%);fill-opacity:1;" d="M 50 71.679688 C 42.246094 71.65625 34.59375 69.890625 27.613281 66.511719 C 27.039062 66.28125 26.636719 65.746094 26.578125 65.128906 C 26.515625 64.511719 26.804688 63.910156 27.324219 63.570312 C 27.84375 63.230469 28.511719 63.207031 29.050781 63.511719 C 42.269531 69.96875 57.730469 69.96875 70.949219 63.511719 C 71.488281 63.207031 72.15625 63.230469 72.675781 63.570312 C 73.195312 63.910156 73.484375 64.511719 73.421875 65.128906 C 73.363281 65.746094 72.960938 66.28125 72.386719 66.511719 C 65.40625 69.890625 57.753906 71.65625 50 71.679688 Z M 50 71.679688 "/>
</g>
</svg>
